inDegrees=no
num_controls=7
num_derivatives=13
num_iterations=34
num_multipliers=7
num_parameters=0
num_slacks=7
num_states=26
objective=0.426447
objective_accelerations=0.059239
objective_balance=0.001134
objective_effort=0.015697
objective_height=0.344367
objective_ligament=0.006010
solver_duration=506.169525
status=Solve_Succeeded
success=true
DataType=double
version=3
OpenSimVersion=4.5
endheader
time	/jointset/ground_pelvis/pelvis_tilt/value	/jointset/ground_pelvis/pelvis_tx/value	/jointset/ground_pelvis/pelvis_ty/value	/jointset/hip_l/hip_flexion_l/value	/jointset/hip_l/hip_adduction_l/value	/jointset/hip_l/hip_rotation_l/value	/jointset/back/lumbar_extension/value	/jointset/patellofemoral_l/patellar_flexion_l/value	/jointset/knee_l/knee_flexion_l/value	/jointset/knee_l/knee_adduction_l/value	/jointset/knee_l/knee_rotation_l/value	/jointset/ankle_l/ankle_angle_l/value	/jointset/subtalar_l/subtalar_angle_l/value	/jointset/ground_pelvis/pelvis_tilt/speed	/jointset/ground_pelvis/pelvis_tx/speed	/jointset/ground_pelvis/pelvis_ty/speed	/jointset/hip_l/hip_flexion_l/speed	/jointset/hip_l/hip_adduction_l/speed	/jointset/hip_l/hip_rotation_l/speed	/jointset/back/lumbar_extension/speed	/jointset/patellofemoral_l/patellar_flexion_l/speed	/jointset/knee_l/knee_flexion_l/speed	/jointset/knee_l/knee_adduction_l/speed	/jointset/knee_l/knee_rotation_l/speed	/jointset/ankle_l/ankle_angle_l/speed	/jointset/subtalar_l/subtalar_angle_l/speed	/forceset/tau_hip_flexion_l	/forceset/tau_hip_adduction_l	/forceset/tau_hip_rotation_l	/forceset/tau_knee_flexion_l	/forceset/tau_ankle_angle_l	/forceset/tau_subtalar_angle_l	/forceset/tau_lumbar_extension	lambda_cid13_p0	lambda_cid13_p1	lambda_cid13_p2	lambda_cid13_p3	lambda_cid13_p4	lambda_cid13_p5	lambda_cid14_p0	/jointset/ground_pelvis/pelvis_tilt/accel	/jointset/ground_pelvis/pelvis_tx/accel	/jointset/ground_pelvis/pelvis_ty/accel	/jointset/hip_l/hip_flexion_l/accel	/jointset/hip_l/hip_adduction_l/accel	/jointset/hip_l/hip_rotation_l/accel	/jointset/back/lumbar_extension/accel	/jointset/patellofemoral_l/patellar_flexion_l/accel	/jointset/knee_l/knee_flexion_l/accel	/jointset/knee_l/knee_adduction_l/accel	/jointset/knee_l/knee_rotation_l/accel	/jointset/ankle_l/ankle_angle_l/accel	/jointset/subtalar_l/subtalar_angle_l/accel	gamma_cid13_p0	gamma_cid13_p1	gamma_cid13_p2	gamma_cid13_p3	gamma_cid13_p4	gamma_cid13_p5	gamma_cid14_p0
1.5	-0.3521060063587648	0.0581066514316317	0.7894741246979621	1.011921683139882	-0.3614434320969834	-0.04109843212130249	-0.3277707002860112	0.8260722380292492	0.82607223802927	-0.04481585337921398	-0.1687609095358251	0.2849236671425608	0.1546043652635865	0.5020703566290941	0.2689308576775761	0.5004501388366163	-2.337708519884597	-0.004649379266153087	-0.58903133144776	0.6076298185647667	-2.22152838591954	-2.221528385919361	-0.313120576668982	0.05890327764684676	-0.5607168512620769	-0.2284031482179215	-0.1373873268562609	0.08348079733879646	0.002271494585344695	-0.11996610811867	-0.04489367813753665	-0.01895374160099382	0.1286427255551683	-40.34415640494774	16.14574421584458	-3.826176109197831	1.301067013448105	-428.4261002079463	-19.79700643747782	-9.857160066364051	0.6002586457423987	0.485337766196196	-0.7891242953130165	-1.167738345446916	0.3220677223104501	-0.420378703514252	1.572815208540801	-1.174926398890671	-1.174926398890659	-0.0947032671598019	0.4242094709959165	-0.6648479621683865	0.4090982093658453	4.571191279191343e-07	8.438932708748279e-07	-6.245037709559266e-06	-1.793667610028701e-07	1.341921200600696e-06	2.17674756596896e-06	7.929124575728296e-07
1.51	-0.3470554364993385	0.0608198601713666	0.7944382094321317	0.9884879072567323	-0.361475695915048	-0.04700890616651831	-0.3216174782788977	0.8038003115419499	0.8038003115419877	-0.04795566883232925	-0.1681530990791994	0.2792834051275875	0.152338266568594	0.5079532770038433	0.2736651980620929	0.4922605403138988	-2.348726418385694	-0.001805512803891991	-0.5929002725760167	0.6229239506084147	-2.232557133980628	-2.23255713398045	-0.3149025581087399	0.06273849386666788	-0.5672462685299345	-0.2247932037107916	-0.1330289591918369	0.08190186942901009	0.003450720650654521	-0.1168895085194791	-0.04501003927248183	-0.0200168840011474	0.1250089958953436	-40.25490580883699	16.37474336552134	-3.614709864647433	1.593788302888197	-425.2276109334185	-19.79501656547305	-10.7695215812728	0.5687877369557195	0.460701273256655	-0.8496656585907946	-1.020739654945281	0.2652955835794316	-0.3450532949439162	1.49411736487393	-1.02200486111235	-1.022004861112589	-0.2284905169210816	0.3747028371877188	-0.6334521617758894	0.3401935496032934	3.022178803681659e-07	2.713650389030738e-06	-3.908611121464521e-06	1.796838561167005e-07	9.582646154811734e-07	2.52130693780301e-06	6.737921268090298e-07
1.52	-0.3419487416354335	0.06357905613468204	0.7993172405755066	0.9649535675780756	-0.3614795711734001	-0.05295304991852424	-0.3153140339188275	0.7814270664037529	0.7814270664038264	-0.05111501308671768	-0.1675046314324422	0.2735805562294024	0.1501089175143172	0.5132953575231676	0.278128302393679	0.4834394206776537	-2.357821278986963	0.00102833267419179	-0.5957652728027765	0.6376742891559507	-2.241792116097493	-2.241792116097316	-0.3170263369299864	0.06703471567498631	-0.5732342279050482	-0.221053220074992	-0.128670591527441	0.08032294151917869	0.004629946716090083	-0.1138129089202897	-0.04512640040743759	-0.02108002640137334	0.1213752662355006	-40.16278122567255	16.60149964006795	-3.400896129189778	1.859812480422479	-421.9792248013397	-19.85383418521225	-11.67874617756441	0.4920906746575279	0.4310905556100207	-0.9154285180185397	-0.7831307654811337	0.3200635254750057	-0.2195905232148371	1.464056509318459	-0.8161732100460107	-0.8161732100459876	-0.1630627434574781	0.5164105886954007	-0.5565563836196183	0.4351060350998187	1.891672029009312e-07	4.104773866264594e-06	-2.265259523654455e-06	4.393696493847873e-07	6.839449867797201e-07	2.757278940518942e-06	5.971810870001025e-07
1.53	-0.3367913121985054	0.06638152983303858	0.8041049858502988	0.941337945439245	-0.3614547562332083	-0.05892479694810907	-0.308865857562126	0.7589707752534451	0.7589707752535028	-0.05429391115483972	-0.166813299211984	0.2678209005788105	0.1479183613627516	0.5181010270331112	0.2823203081576919	0.4740120509041253	-2.364975948373864	0.003939249396004757	-0.5984877696173743	0.6518656083231249	-2.249138939886729	-2.249138939886513	-0.3187466521079796	0.07126123293780064	-0.5785835304463554	-0.2170192519517635	-0.1243042026746396	0.07855538664058676	0.005700392892971991	-0.1110190612375171	-0.04498994030770018	-0.0221813658281461	0.1177485534542206	-40.00729260675903	16.84583514991859	-3.203690661247124	2.060324334985822	-418.9998320552878	-19.90996399757185	-12.58355065784458	0.4614043389859856	0.4064714154891318	-0.9709404874829312	-0.6325291015339831	0.2768850658345968	-0.2836075526969556	1.382363541263181	-0.6449706332643702	-0.6449706332586166	-0.1747306278672221	0.3801307069581454	-0.5069017973198731	0.3925998993992713	1.205827561476631e-07	4.987349100018771e-06	-1.358300103021853e-06	5.934803173106736e-07	5.257958742724648e-07	2.877876863546877e-06	5.657361688307266e-07
1.54	-0.3315885062165078	0.06922456675477358	0.8087955475712636	0.9176605977913016	-0.3614007762617331	-0.06492077460426489	-0.3022786292295825	0.7364508091313359	0.7364508091312491	-0.05748965531944226	-0.1660788301364537	0.2620111949812178	0.1457691564321122	0.5223706665359709	0.2862409470693679	0.4640027099121431	-2.370166380810348	0.006861338929818336	-0.6006113981165552	0.6654846843241516	-2.254527110472041	-2.254527110471786	-0.3203955562018438	0.0756620866759562	-0.583244217305005	-0.2127829758899372	-0.1199378138218313	0.07678783176200313	0.00677083906936786	-0.1082252135547243	-0.04485348020795163	-0.02328270525489474	0.1141218406729438	-39.84958399845518	17.08779463168049	-3.003835490501255	2.245092600904667	-415.97845250481	-20.00693584005623	-13.48350214401338	0.3848846732408323	0.3768171851426244	-1.031822761709326	-0.390283375397602	0.3222980878751851	-0.09981686013146221	1.34960787608896	-0.4244425692610806	-0.4244425692610765	-0.1487805266316191	0.5512778837636572	-0.4188332470881376	0.4755676228193642	8.207995098575215e-08	5.547079402105702e-06	-8.941228933370762e-07	6.830386906597753e-07	4.522596563596921e-07	2.986960906112685e-06	5.569752462172228e-07
